<svg width="146" height="48" viewBox="0 0 146 48" fill="none" xmlns="http://www.w3.org/2000/svg">
<g filter="url(#filter0_d_5921_9865)">
<rect x="8" y="4" width="32" height="32" rx="6" fill="white"/>
<rect x="8.25" y="4.25" width="31.5" height="31.5" rx="5.75" stroke="#E2E8F0" stroke-width="0.5"/>
<path d="M16.5 24.6991L17.5424 24.2443C19.2273 27.0635 21.1525 28.6598 23.772 28.6598C25.7512 28.6598 27.3282 27.3483 27.3282 25.1562C27.3282 20.9393 17.2189 23.5048 17.2189 16.61C17.2189 12.7929 20.2944 10 24.1179 10C26.6857 10 28.7705 11.2253 30.4554 13.8459L29.5455 14.5016C27.9146 12.3358 26.524 11.254 24.1449 11.254C22.3005 11.254 20.9369 12.2807 20.9369 14.2743C20.9369 18.0627 31.5 16.61 31.5 23.0765C31.5 26.8362 28.0763 30 24.0663 30C20.993 29.9976 18.2388 28.0902 16.5 24.6991ZM19.8428 14.6141C19.8428 13.4462 20.2966 12.5631 20.9661 11.7087C19.2542 12.5344 18.2388 14.5279 18.2388 16.2391C18.2388 22.4494 28.3729 19.714 28.3729 24.8714C28.3729 26.324 27.8112 27.3794 26.7419 28.6598C28.9345 27.322 30.4059 25.4409 30.4059 23.2177C30.4059 17.6918 19.8428 19.2306 19.8428 14.6141Z" fill="#2A2D34"/>
</g>
<path d="M79.5 29L88.639 11L97.5 29H96.3435L94.0986 24.4745H86.3707L84.1045 29H82.9713L89.7274 15.6037L88.5709 13.379L80.6331 29H79.5ZM90.328 16.8182L86.9966 23.3882H93.5447L90.328 16.8182Z" fill="white"/>
<path d="M115.5 11H125.556L125.532 12.1652L119.473 12.1918V19.1539H124.57V20.2924H119.473V27.8348H125.625V29H115.502V11H115.5ZM116.511 12.1918V27.8348H118.462V12.1918H116.511Z" fill="white"/>
<path d="M66 11H67.0035V27.8864H69.4064V11H70.4098V27.8864H76.125V29H66V11Z" fill="white"/>
<path d="M48 24.2291L48.9381 23.8199C50.4545 26.3572 52.1873 27.7938 54.5448 27.7938C56.326 27.7938 57.7454 26.6135 57.7454 24.6405C57.7454 20.8454 48.647 23.1544 48.647 16.949C48.647 13.5136 51.4149 11 54.8561 11C57.1671 11 59.0434 12.1028 60.5598 14.4613L59.741 15.0515C58.2731 13.1022 57.0216 12.1286 54.8804 12.1286C53.2205 12.1286 51.9932 13.0527 51.9932 14.8468C51.9932 18.2564 61.5 16.949 61.5 22.7688C61.5 26.1526 58.4187 29 54.8096 29C52.0437 28.9978 49.5649 27.2812 48 24.2291ZM51.0085 15.1527C51.0085 14.1016 51.417 13.3068 52.0195 12.5379C50.4788 13.281 49.5649 15.0751 49.5649 16.6152C49.5649 22.2045 58.6856 19.7426 58.6856 24.3842C58.6856 25.6916 58.1801 26.6415 57.2177 27.7938C59.191 26.5898 60.5154 24.8968 60.5154 22.8959C60.5154 17.9226 51.0085 19.3075 51.0085 15.1527Z" fill="white"/>
<path d="M97.5 11H112.125V12.1919H106.879V29H102.796V12.1919H97.502V11H97.5ZM105.834 12.1919H103.815V27.8615H105.834V12.1919Z" fill="white"/>
<path d="M127.875 11.1575H133.199L138.119 18.0328L144.245 11L145.7 11.0263L138.845 19.0219L145.875 28.8424H140.553L135.909 22.4354L130.235 29H128.803L135.205 21.4989L127.875 11.1575ZM132.697 12.1729H129.885L141.133 27.8009H143.894L132.697 12.1729Z" fill="white"/>
<defs>
<filter id="filter0_d_5921_9865" x="0" y="0" width="48" height="48" filterUnits="userSpaceOnUse" color-interpolation-filters="sRGB">
<feFlood flood-opacity="0" result="BackgroundImageFix"/>
<feColorMatrix in="SourceAlpha" type="matrix" values="0 0 0 0 0 0 0 0 0 0 0 0 0 0 0 0 0 0 127 0" result="hardAlpha"/>
<feOffset dy="4"/>
<feGaussianBlur stdDeviation="4"/>
<feComposite in2="hardAlpha" operator="out"/>
<feColorMatrix type="matrix" values="0 0 0 0 0.309804 0 0 0 0 0.27451 0 0 0 0 0.898039 0 0 0 0.1 0"/>
<feBlend mode="normal" in2="BackgroundImageFix" result="effect1_dropShadow_5921_9865"/>
<feBlend mode="normal" in="SourceGraphic" in2="effect1_dropShadow_5921_9865" result="shape"/>
</filter>
</defs>
</svg>
